<?xml version="1.0" encoding="UTF-8"?>
<svg version="1.1" xmlns="http://www.w3.org/2000/svg" width="200" height="200">
<path d="M0 0 C66 0 132 0 200 0 C200 66 200 132 200 200 C134 200 68 200 0 200 C0 134 0 68 0 0 Z " fill="#000000" transform="translate(0,0)"/>
<path d="M0 0 C66 0 132 0 200 0 C200 4.62 200 9.24 200 14 C195.30442353 14.09954745 190.60947337 14.17178467 185.91308594 14.21972656 C184.31857592 14.23973053 182.72413822 14.26694301 181.12988281 14.30175781 C165.351254 14.63747332 165.351254 14.63747332 158 10 C152.37445722 7.98387891 147.33607817 7.7064603 141.4453125 7.734375 C140.54432831 7.73246155 139.64334412 7.7305481 138.71505737 7.72857666 C136.81735961 7.7272215 134.91965237 7.73087099 133.02197266 7.73925781 C130.14073501 7.74994165 127.26012438 7.73935261 124.37890625 7.7265625 C122.52604031 7.7278847 120.67317475 7.73044835 118.8203125 7.734375 C117.54488083 7.72830231 117.54488083 7.72830231 116.24368286 7.72210693 C109.2421053 7.77609459 102.15756974 8.39647848 96 12 C94.78306124 14.43387753 94.68040104 16.41838846 94.4375 19.125 C94.31181641 20.49011719 94.31181641 20.49011719 94.18359375 21.8828125 C94.12300781 22.58148437 94.06242187 23.28015625 94 24 C93.10539062 24.20753906 92.21078125 24.41507813 91.2890625 24.62890625 C81.11554964 27.2210913 72.0569932 30.91451021 66 40 C65.34 40.99 64.68 41.98 64 43 C63.75892674 45.28648848 63.75892674 45.28648848 63.875 47.6875 C63.89304688 48.49574219 63.91109375 49.30398437 63.9296875 50.13671875 C63.95289063 50.75160156 63.97609375 51.36648437 64 52 C65.20556604 52.63032133 66.41463189 53.2539497 67.625 53.875 C68.29789062 54.22304688 68.97078125 54.57109375 69.6640625 54.9296875 C72.35606463 56.16314667 75.19082445 57.06360815 78 58 C78 64.27 78 70.54 78 77 C71.07 77 64.14 77 57 77 C57.01160156 78.65386719 57.02320313 80.30773437 57.03515625 82.01171875 C57.05728875 86.56513546 57.07153151 91.11840249 57.06640625 95.671875 C57.06584229 96.72729492 57.06527832 97.78271484 57.06469727 98.87011719 C56.9983758 102.07857451 56.77398684 105.24042361 56.5 108.4375 C55.93542019 115.17485245 55.88595955 121.86706779 55.875 128.625 C55.87048828 129.7895874 55.86597656 130.9541748 55.86132812 132.15405273 C55.86326172 133.25048096 55.86519531 134.34690918 55.8671875 135.4765625 C55.86887939 136.962771 55.86887939 136.962771 55.87060547 138.47900391 C55.89397295 141.12722423 55.89397295 141.12722423 57 144 C59.621301 145.0010669 59.621301 145.0010669 62.75 145.625 C63.79671875 145.86476562 64.8434375 146.10453125 65.921875 146.3515625 C68.61152201 146.91816327 71.3028116 147.47055191 74 148 C74 149.65 74 151.3 74 153 C72.68 153.33 71.36 153.66 70 154 C70 156.31 70 158.62 70 161 C70.99 161.33 71.98 161.66 73 162 C73 174.54 73 187.08 73 200 C48.91 200 24.82 200 0 200 C0 134 0 68 0 0 Z " fill="#21B14C" transform="translate(0,0)"/>
<path d="M0 0 C3.06255961 -0.0270491 6.1248786 -0.04686298 9.1875 -0.0625 C10.05181641 -0.07087891 10.91613281 -0.07925781 11.80664062 -0.08789062 C16.04551394 -0.10413152 19.84886442 0.09109123 24 1 C27.4020399 1.2175924 30.79880883 1.39026997 34.20507812 1.51757812 C37.8901175 1.70096506 40.91794971 1.85563085 44 4 C44.495 4.99 44.495 4.99 45 6 C45.33 4.35 45.66 2.7 46 1 C55.87459185 0.37743379 55.87459185 0.37743379 59.9375 2.625 C64.86947079 8.30423909 66.65216349 12.52659287 67.25 19.875 C67.36601562 21.050625 67.36601562 21.050625 67.484375 22.25 C67.67123005 24.16526429 67.83771693 26.08249737 68 28 C68.99 28 69.98 28 71 28 C71.12117188 28.61488281 71.24234375 29.22976562 71.3671875 29.86328125 C71.53476563 30.67152344 71.70234375 31.47976562 71.875 32.3125 C72.03742188 33.11300781 72.19984375 33.91351563 72.3671875 34.73828125 C72.94478999 37.25301118 72.94478999 37.25301118 75 40 C76.67660583 50.13872014 76.1035244 60.75108465 76 71 C65.29100529 71.38095238 65.29100529 71.38095238 60 69 C57.51154721 66.51154721 57.64443691 65.46149351 57.3671875 62.01171875 C57.28331787 61.00125488 57.19944824 59.99079102 57.11303711 58.94970703 C57.03448486 57.87317871 56.95593262 56.79665039 56.875 55.6875 C56.78935791 54.59550293 56.70371582 53.50350586 56.61547852 52.37841797 C56.12460569 45.78865867 55.89359839 39.29322359 55.97265625 32.6875 C56.19270725 23.59989731 56.19270725 23.59989731 51.9375 15.875 C50.96469991 14.91020463 49.98655045 13.95073043 49 13 C49.28004883 13.6911792 49.56009766 14.3823584 49.84863281 15.09448242 C53.68567304 25.77186955 53.66623955 36.08372978 53.75 47.3125 C53.77821763 49.22854189 53.80815293 51.14455928 53.83984375 53.06054688 C53.91301401 57.70698643 53.96300624 62.35313739 54 67 C53.01 67 52.02 67 51 67 C51 67.66 51 68.32 51 69 C40.39595726 69.17640737 29.83614536 68.76287467 19.24487305 68.26782227 C18.10961182 68.21940186 16.97435059 68.17098145 15.8046875 68.12109375 C14.78358887 68.0739624 13.76249023 68.02683105 12.71044922 67.97827148 C10.23948699 67.99808013 8.35672872 68.33191091 6 69 C4.08438746 69.06688591 2.16664408 69.08531719 0.25 69.0625 C-0.73484375 69.05347656 -1.7196875 69.04445313 -2.734375 69.03515625 C-3.48203125 69.02355469 -4.2296875 69.01195312 -5 69 C-5 68.34 -5 67.68 -5 67 C-5.804375 67.020625 -6.60875 67.04125 -7.4375 67.0625 C-10 67 -10 67 -11 66 C-11.23701239 63.14122091 -11.42219182 60.30116703 -11.5625 57.4375 C-11.60568359 56.63119141 -11.64886719 55.82488281 -11.69335938 54.99414062 C-11.79975262 52.99631195 -11.90040888 50.9981793 -12 49 C-12.19916016 50.17369141 -12.19916016 50.17369141 -12.40234375 51.37109375 C-12.57894531 52.38300781 -12.75554687 53.39492187 -12.9375 54.4375 C-13.11152344 55.44683594 -13.28554687 56.45617187 -13.46484375 57.49609375 C-14 60 -14 60 -15 61 C-16.76853292 61.09938863 -18.54118275 61.12969223 -20.3125 61.125 C-21.27800781 61.12757813 -22.24351563 61.13015625 -23.23828125 61.1328125 C-25.68586083 61.01510712 -27.70011819 60.83153622 -30 60 C-31.19654814 57.60690372 -31.13335131 56.10574225 -31.125 53.4375 C-31.12886719 52.22900391 -31.12886719 52.22900391 -31.1328125 50.99609375 C-31 48 -31 48 -30.51953125 44.28125 C-29.98383864 39.70546288 -29.85137957 35.13715372 -29.75390625 30.53515625 C-29.72892059 29.38889015 -29.72892059 29.38889015 -29.70343018 28.21946716 C-29.6365824 25.01644138 -29.57453568 21.81342163 -29.52319336 18.61010742 C-29.48365885 16.25153074 -29.43215297 13.89345754 -29.37890625 11.53515625 C-29.3704921 10.80813004 -29.36207794 10.08110382 -29.35340881 9.33204651 C-29.22689102 4.22689102 -29.22689102 4.22689102 -27 2 C-25.02880859 1.77294922 -25.02880859 1.77294922 -22.6484375 1.8046875 C-21.79765625 1.81113281 -20.946875 1.81757812 -20.0703125 1.82421875 C-18.73613281 1.84935547 -18.73613281 1.84935547 -17.375 1.875 C-16.02921875 1.88853516 -16.02921875 1.88853516 -14.65625 1.90234375 C-12.43738678 1.92594868 -10.2186603 1.96182038 -8 2 C-8 6.29 -8 10.58 -8 15 C-8.66 15 -9.32 15 -10 15 C-10 23.25 -10 31.5 -10 40 C-7.05198712 32.39222482 -5.60747349 25.87652414 -5.29541016 17.8203125 C-5.078079 12.3830821 -4.30589996 7.27431439 -3 2 C-2.01 2 -1.02 2 0 2 C0 1.34 0 0.68 0 0 Z " fill="#FF7E00" transform="translate(91,80)"/>
<path d="M0 0 C15.18 0 30.36 0 46 0 C46 43.23 46 86.46 46 131 C33.79 131 21.58 131 9 131 C7.02 127.04 5.04 123.08 3 119 C2.01 117.35 1.02 115.7 0 114 C-1.6940314 110.25901398 -3.18637943 106.49058493 -4.5625 102.625 C-5.55605776 98.94422724 -5.55605776 98.94422724 -8 98 C-8 95.69 -8 93.38 -8 91 C-7.34 91 -6.68 91 -6 91 C-6 89.02 -6 87.04 -6 85 C-4.80503906 85.23009766 -4.80503906 85.23009766 -3.5859375 85.46484375 C0.73447415 86.10961107 5.01537398 86.35042888 9.375 86.5625 C10.20644531 86.60568359 11.03789062 86.64886719 11.89453125 86.69335938 C13.92953228 86.79861805 15.96474703 86.89973072 18 87 C15.64650516 47.75070225 15.64650516 47.75070225 1.03125 11.66015625 C0 9 0 9 0 0 Z " fill="#00B7EF" transform="translate(154,69)"/>
<path d="M0 0 C66 0 132 0 200 0 C200 4.62 200 9.24 200 14 C195.30442353 14.09954745 190.60947337 14.17178467 185.91308594 14.21972656 C184.31857592 14.23973053 182.72413822 14.26694301 181.12988281 14.30175781 C165.351254 14.63747332 165.351254 14.63747332 158 10 C152.37445722 7.98387891 147.33607817 7.7064603 141.4453125 7.734375 C140.54432831 7.73246155 139.64334412 7.7305481 138.71505737 7.72857666 C136.81735961 7.7272215 134.91965237 7.73087099 133.02197266 7.73925781 C130.14073501 7.74994165 127.26012438 7.73935261 124.37890625 7.7265625 C122.52604031 7.7278847 120.67317475 7.73044835 118.8203125 7.734375 C117.54488083 7.72830231 117.54488083 7.72830231 116.24368286 7.72210693 C109.2421053 7.77609459 102.15756974 8.39647848 96 12 C94.78306124 14.43387753 94.68040104 16.41838846 94.4375 19.125 C94.31181641 20.49011719 94.31181641 20.49011719 94.18359375 21.8828125 C94.12300781 22.58148437 94.06242187 23.28015625 94 24 C93.10539062 24.20753906 92.21078125 24.41507813 91.2890625 24.62890625 C81.11554964 27.2210913 72.0569932 30.91451021 66 40 C65.34 40.99 64.68 41.98 64 43 C63.61500109 44.65549531 63.27206865 46.3222433 63 48 C62.113125 47.505 61.22625 47.01 60.3125 46.5 C53.82417216 43.70421646 46.23153617 44.56330592 39.38671875 45.48828125 C32.58840998 46.39255 25.69548623 46.35640647 18.84765625 46.51757812 C17.76871094 46.55173828 16.68976562 46.58589844 15.578125 46.62109375 C14.11487793 46.65867798 14.11487793 46.65867798 12.62207031 46.69702148 C9.90412808 47.01107794 8.27923462 47.50671916 6 49 C3.51386526 52.72920211 3.64063779 55.3459892 3.44140625 59.72265625 C3.29574219 60.47417969 3.15007812 61.22570313 3 62 C2.01 62.66 1.02 63.32 0 64 C0 42.88 0 21.76 0 0 Z " fill="#00B7EF" transform="translate(0,0)"/>
<path d="M0 0 C23.51401869 3.51401869 23.51401869 3.51401869 25 5 C27.32817964 5.36760731 29.6618385 5.70241581 32 6 C32 9.3 32 12.6 32 16 C31.505 15.01 31.505 15.01 31 14 C29.02111039 13.27306096 27.02045442 12.60183749 25 12 C25.00523682 13.14025635 25.01047363 14.2805127 25.01586914 15.45532227 C25.11438047 39.00186515 24.91827913 62.46909717 24 86 C9.15 86 -5.7 86 -21 86 C-21.20054405 66.73440192 -21.20054405 66.73440192 -21.24414062 58.51757812 C-21.27402205 52.91227535 -21.30935802 47.30738122 -21.37719727 41.70239258 C-21.43155345 37.18307712 -21.46142812 32.66419989 -21.47438622 28.14458275 C-21.48361968 26.42096241 -21.50165089 24.69736586 -21.52865028 22.97393227 C-21.56499028 20.55802351 -21.56994354 18.14392162 -21.56762695 15.7277832 C-21.58560333 15.01640198 -21.60357971 14.30502075 -21.62210083 13.57208252 C-21.58171069 9.6750106 -21.10541714 8.12772134 -18.58952332 5.07951355 C-14.44989421 1.75518943 -12.16439569 1.88941458 -6.875 1.9375 C-5.59367188 1.94652344 -4.31234375 1.95554687 -2.9921875 1.96484375 C-2.00476563 1.97644531 -1.01734375 1.98804687 0 2 C0 1.34 0 0.68 0 0 Z " fill="#9C5A3C" transform="translate(21,114)"/>
<path d="M0 0 C-0.78890625 0.62003906 -1.5778125 1.24007813 -2.390625 1.87890625 C-6.50404406 5.22259869 -8.26601507 7.71530852 -9 13 C-5.62256011 12.74981927 -4.74864631 11.74280087 -2.3125 9.25 C-0.10035869 6.14104465 0.43770457 4.63329357 1 1 C10.40671758 1.16935171 21.50770759 2.10519546 28.8671875 8.6640625 C29.42792969 9.32535156 29.42792969 9.32535156 30 10 C28.87548273 12.9719385 27.77706209 15.33440687 26 18 C25.34 18 24.68 18 24 18 C24 18.66 24 19.32 24 20 C18.2826148 24.96045519 11.90661596 27.3795295 4.6875 29.25 C3.76686768 29.49959473 2.84623535 29.74918945 1.89770508 30.00634766 C-4.67341495 31.7502374 -11.22603106 33.30299998 -18 34 C-18.71929687 34.0825 -19.43859375 34.165 -20.1796875 34.25 C-25.83866548 34.60230991 -30.107655 32.52737325 -35 30 C-38.08003856 28.45998072 -41.42567742 28.46919227 -44.8125 28.125 C-64.43047816 25.95886559 -64.43047816 25.95886559 -72 21 C-69.82662297 13.21206564 -65.60465293 9.10511601 -59.0546875 4.64453125 C-41.16992133 -4.98396818 -19.33518896 -2.50641338 0 0 Z " fill="#99583B" transform="translate(139,28)"/>
<path d="M0 0 C1.29873047 -0.02900391 2.59746094 -0.05800781 3.93554688 -0.08789062 C14.69757715 -0.15816003 23.09472974 1.76364488 32.3125 7.3125 C35.73458708 7.8304375 39.16825698 7.88462151 42.3125 6.3125 C45.26124168 6.1873313 48.17606546 6.12732017 51.125 6.125 C51.93259766 6.11275391 52.74019531 6.10050781 53.57226562 6.08789062 C57.90827002 6.07723705 61.4104363 6.18546336 65.3125 8.3125 C70.92117622 14.52210581 69.70720727 23.03698565 69.46191406 30.89257812 C68.52282258 46.10217742 68.52282258 46.10217742 64.3125 50.3125 C51.40837953 52.39380975 35.63413613 52.89123488 23.3125 48.3125 C23.3125 47.3225 23.3125 46.3325 23.3125 45.3125 C30.74107143 42.02678571 30.74107143 42.02678571 34.3125 41.3125 C34.3125 40.6525 34.3125 39.9925 34.3125 39.3125 C35.80859375 37.875 35.80859375 37.875 37.75 36.3125 C41.29642548 33.50677556 41.29642548 33.50677556 42.55078125 29.2890625 C42.58751953 28.12503906 42.58751953 28.12503906 42.625 26.9375 C42.66238281 26.16664062 42.69976562 25.39578125 42.73828125 24.6015625 C42.14404107 21.40684005 40.81981871 20.32433494 38.3125 18.3125 C28.59072321 13.43518968 16.96546273 12.63596519 6.3125 11.3125 C5.28640625 11.1784375 4.2603125 11.044375 3.203125 10.90625 C-1.77338887 10.3762071 -6.74846549 10.27138627 -11.75 10.2578125 C-13.39403809 10.25334106 -13.39403809 10.25334106 -15.07128906 10.2487793 C-19.94352038 10.25054613 -24.81542733 10.27408604 -29.6875 10.3125 C-29.3828125 7.953125 -29.3828125 7.953125 -28.6875 5.3125 C-20.13556402 -0.84489391 -10.16465782 0.07455739 0 0 Z " fill="#FFFFFF" transform="translate(129.6875,12.6875)"/>
<path d="M0 0 C0.85924072 0.00572021 1.71848145 0.01144043 2.60375977 0.01733398 C11.11670314 0.10859527 19.61681622 0.51910712 28.12060547 0.90161133 C34.81244396 1.17555502 41.23904241 1.16981914 47.89453125 0.34375 C50.54607661 0.1724062 52.74045588 0.55949641 55.3125 1.1875 C55.72027591 13.91916998 55.72027591 13.91916998 53.3125 18.1875 C50.625 19.3125 50.625 19.3125 47.3125 20.1875 C46.301875 20.88875 45.29125 21.59 44.25 22.3125 C38.7186693 25.64866134 31.04703478 24.99776611 24.91796875 23.66796875 C24.38816406 23.50941406 23.85835937 23.35085937 23.3125 23.1875 C23.3125 23.8475 23.3125 24.5075 23.3125 25.1875 C17.93526306 25.40258948 13.31906018 25.45237246 8.3125 23.1875 C7.86003906 22.6925 7.40757813 22.1975 6.94140625 21.6875 C4.89504546 19.80308143 3.33761073 19.51107159 0.625 19 C-0.58736328 18.76216797 -0.58736328 18.76216797 -1.82421875 18.51953125 C-2.43910156 18.40996094 -3.05398437 18.30039062 -3.6875 18.1875 C-3.6875 19.5075 -3.6875 20.8275 -3.6875 22.1875 C-8.85128512 22.81722989 -11.30026956 21.47322364 -15.26953125 18.4765625 C-17.11254449 16.80109592 -17.63506754 15.63274613 -17.92578125 13.1640625 C-18.12598191 6.82086275 -18.12598191 6.82086275 -16 3.75 C-10.78840577 0.22865255 -6.17114171 -0.09748748 0 0 Z " fill="#FEFEFE" transform="translate(27.6875,2.8125)"/>
<path d="M0 0 C2.02045442 0.60183749 4.02111039 1.27306096 6 2 C7.20272819 4.40545638 7.10071472 5.94996953 7.0625 8.625 C7.05347656 9.44226563 7.04445313 10.25953125 7.03515625 11.1015625 C7.02355469 11.72804687 7.01195312 12.35453125 7 13 C6.01 13 5.02 13 4 13 C4 16.3 4 19.6 4 23 C11.92 23 19.84 23 28 23 C27.67 24.65 27.34 26.3 27 28 C26.01 28 25.02 28 24 28 C24 30.31 24 32.62 24 35 C25.485 35.495 25.485 35.495 27 36 C27 48.54 27 61.08 27 74 C17.76 74 8.52 74 -1 74 C-1.12041465 49.31499755 -0.6555435 24.67528506 0 0 Z " fill="#00B7EF" transform="translate(46,126)"/>
<path d="M0 0 C-0.14313578 2.62517106 -0.28946295 5.25010426 -0.4375 7.875 C-0.47681641 8.60203125 -0.51613281 9.3290625 -0.55664062 10.078125 C-0.77528365 13.91278723 -1.06901656 17.71827674 -1.5 21.53515625 C-2.09345839 27.39929835 -2.22387993 33.24240695 -2.31640625 39.1328125 C-2.33718735 40.25066132 -2.35796844 41.36851013 -2.37937927 42.52023315 C-2.44422685 46.05509913 -2.50345535 49.59003282 -2.5625 53.125 C-2.60574699 55.53646505 -2.64936314 57.94792351 -2.69335938 60.359375 C-2.79984085 66.23951576 -2.90128652 72.11972392 -3 78 C-8.28 78 -13.56 78 -19 78 C-19 53.58 -19 29.16 -19 4 C-18.34 4 -17.68 4 -17 4 C-17 3.01 -17 2.02 -17 1 C-15.47968196 0.82869656 -13.9587061 0.66322927 -12.4375 0.5 C-11.16712891 0.36078125 -11.16712891 0.36078125 -9.87109375 0.21875 C-6.57248453 -0.03257261 -3.3069039 -0.03270115 0 0 Z " fill="#00B7EF" transform="translate(19,122)"/>
<path d="M0 0 C38.94 0 77.88 0 118 0 C118 4.62 118 9.24 118 14 C113.30442353 14.09954745 108.60947337 14.17178467 103.91308594 14.21972656 C102.31857592 14.23973053 100.72413822 14.26694301 99.12988281 14.30175781 C83.351254 14.63747332 83.351254 14.63747332 76 10 C70.37445722 7.98387891 65.33607817 7.7064603 59.4453125 7.734375 C58.54432831 7.73246155 57.64334412 7.7305481 56.71505737 7.72857666 C54.81735961 7.7272215 52.91965237 7.73087099 51.02197266 7.73925781 C48.14073501 7.74994165 45.26012438 7.73935261 42.37890625 7.7265625 C40.52604031 7.7278847 38.67317475 7.73044835 36.8203125 7.734375 C35.54488083 7.72830231 35.54488083 7.72830231 34.24368286 7.72210693 C27.2421053 7.77609459 20.15756974 8.39647848 14 12 C12.78306124 14.43387753 12.68040104 16.41838846 12.4375 19.125 C12.35371094 20.03507812 12.26992187 20.94515625 12.18359375 21.8828125 C12.12300781 22.58148437 12.06242187 23.28015625 12 24 C10.23225581 24.53122363 8.46065917 25.04964073 6.6875 25.5625 C5.70136719 25.85253906 4.71523437 26.14257812 3.69921875 26.44140625 C1 27 1 27 -2 26 C-1.195625 25.38125 -0.39125 24.7625 0.4375 24.125 C3.03874519 22.25835959 3.03874519 22.25835959 4 20 C4.66 20 5.32 20 6 20 C7.05502637 16.83492089 7.26899441 14.3269448 7.375 11 C7.42398438 9.948125 7.47296875 8.89625 7.5234375 7.8125 C7.29463056 4.79455514 7.29463056 4.79455514 4.6015625 3.25 C3.74304688 2.8375 2.88453125 2.425 2 2 C1.34 1.34 0.68 0.68 0 0 Z " fill="#00B7EF" transform="translate(82,0)"/>
<path d="M0 0 C2.75031587 0.14111883 5.50015418 0.28771165 8.25 0.4375 C9.41595703 0.49647461 9.41595703 0.49647461 10.60546875 0.55664062 C11.73662109 0.61948242 11.73662109 0.61948242 12.890625 0.68359375 C13.92751465 0.73858032 13.92751465 0.73858032 14.98535156 0.79467773 C17.06628329 1.00675524 18.98572422 1.44508677 21 2 C21 3.32 21 4.64 21 6 C21.99 6 22.98 6 24 6 C23.57289565 8.8352459 23.13364753 11.66774006 22.6875 14.5 C22.56955078 15.29148438 22.45160156 16.08296875 22.33007812 16.8984375 C21.70964753 20.78010582 20.96330506 24.36775345 19.51953125 28.03125 C17.60422179 32.74358876 17.60422179 32.74358876 16 41 C9.73 41 3.46 41 -3 41 C-3.37125 38.15375 -3.37125 38.15375 -3.75 35.25 C-4.45971733 30.51855114 -5.49180828 26.24417297 -7.125 21.75 C-8.98946003 16.55713355 -9.36591051 12.48865765 -9 7 C-8.01 7 -7.02 7 -6 7 C-6 6.01 -6 5.02 -6 4 C-4.02 4 -2.04 4 0 4 C0 2.68 0 1.36 0 0 Z " fill="#00B7EF" transform="translate(102,159)"/>
<path d="M0 0 C1.0544355 -0.00788544 1.0544355 -0.00788544 2.13017273 -0.01593018 C4.44980209 -0.02911393 6.76874276 -0.02039642 9.08837891 -0.01025391 C10.70496756 -0.01227557 12.32155533 -0.01518779 13.93814087 -0.01895142 C17.32587367 -0.02337293 20.71336904 -0.01695108 24.10107422 -0.00292969 C28.43435839 0.01413489 32.76708398 0.00433752 37.10034752 -0.01364708 C40.43932261 -0.02451305 43.77816639 -0.02102525 47.11714554 -0.0132637 C48.71427095 -0.01126804 50.31140844 -0.01369864 51.90851974 -0.02070236 C54.14636307 -0.02836036 56.38331633 -0.01665186 58.62109375 0 C59.89254242 0.00238678 61.16399109 0.00477356 62.47396851 0.00723267 C67.21244013 0.52804608 70.5664074 2.01464959 73.93994141 5.38818359 C74.20556641 8.10302734 74.20556641 8.10302734 74.18994141 11.32568359 C74.19767578 12.91703125 74.19767578 12.91703125 74.20556641 14.54052734 C73.93994141 17.38818359 73.93994141 17.38818359 71.93994141 20.38818359 C71.27994141 20.38818359 70.61994141 20.38818359 69.93994141 20.38818359 C69.73369141 20.96568359 69.52744141 21.54318359 69.31494141 22.13818359 C66.34616729 26.99617761 61.23053401 28.94919139 55.93994141 30.38818359 C52.8605115 30.72721631 49.78527075 30.84833803 46.68994141 30.95068359 C41.14533826 30.90619476 41.14533826 30.90619476 35.93994141 32.38818359 C28.27310973 32.93490625 21.47442787 32.7445079 14.93994141 28.38818359 C13.59334188 28.66306285 12.26202196 29.01269473 10.93994141 29.38818359 C-4.41518705 30.70101384 -4.41518705 30.70101384 -9.99755859 26.45068359 C-11.77490234 24.79833984 -11.77490234 24.79833984 -13.06005859 23.38818359 C-13.39005859 23.05818359 -13.72005859 22.72818359 -14.06005859 22.38818359 C-14.48161315 15.74869928 -13.99910503 9.4636751 -11.06005859 3.38818359 C-7.61298542 -0.03090935 -4.73382339 0.00889753 0 0 Z M-4.37255859 6.95068359 C-6.57060615 10.12564118 -6.68366863 12.39664899 -6.52099609 16.20068359 C-5.539069 20.86067656 -1.78790579 22.90295213 1.93994141 25.38818359 C5.06515974 25.55517592 5.06515974 25.55517592 7.93994141 25.38818359 C7.93994141 24.06818359 7.93994141 22.74818359 7.93994141 21.38818359 C13.60733906 22.30853022 16.98970124 23.01470341 20.93994141 27.38818359 C25.39902971 28.91701387 30.27428923 28.47966697 34.93994141 28.38818359 C34.93994141 27.72818359 34.93994141 27.06818359 34.93994141 26.38818359 C35.47103516 26.54544922 36.00212891 26.70271484 36.54931641 26.86474609 C42.21278271 28.1047861 48.96281069 28.67715133 54.35791016 26.34130859 C55.67081173 25.4778917 56.95986999 24.5766713 58.21728516 23.63427734 C60.59882921 21.91157314 63.12806791 21.1614488 65.93994141 20.38818359 C66.79292517 16.71430864 67.04783611 13.34344429 67.00244141 9.57568359 C66.99341797 8.59986328 66.98439453 7.62404297 66.97509766 6.61865234 C66.96349609 5.88259766 66.95189453 5.14654297 66.93994141 4.38818359 C65.25366537 4.18997755 63.56580931 4.0052005 61.87744141 3.82568359 C60.93771484 3.72126953 59.99798828 3.61685547 59.02978516 3.50927734 C55.92429006 3.28580627 55.92429006 3.28580627 52.83056641 3.88818359 C47.42649425 4.58268283 42.18260459 4.22570392 36.75244141 3.95068359 C28.37751533 3.58367851 20.01088075 3.25677861 11.62744141 3.20068359 C10.81702393 3.18787354 10.00660645 3.17506348 9.17163086 3.16186523 C3.73960825 3.15198777 0.10593739 3.92467279 -4.37255859 6.95068359 Z " fill="#000000" transform="translate(16.06005859375,-0.38818359375)"/>
<path d="M0 0 C4.95 0 9.9 0 15 0 C18.49786892 6.69157532 21.46820591 12.61953757 23 20 C23.33 20.33 23.66 20.66 24 21 C24.07205511 22.68608966 24.08386068 24.37500659 24.0625 26.0625 C24.05347656 26.98160156 24.04445312 27.90070313 24.03515625 28.84765625 C24.02355469 29.55792969 24.01195312 30.26820313 24 31 C14.29381339 31.16831537 4.67846426 30.64217298 -5 30 C-5.05454409 27.64551325 -5.0939279 25.29232125 -5.125 22.9375 C-5.14820312 21.62652344 -5.17140625 20.31554687 -5.1953125 18.96484375 C-4.86184446 12.19544254 -2.41397612 6.25439267 0 0 Z " fill="#2F3699" transform="translate(129,167)"/>
<path d="M0 0 C4 1.33333333 8 2.66666667 12 4 C21.18358174 4.53220218 29.97762635 3.67858114 39 2 C40.43238651 6.67912927 41.35127867 11.13166786 42 16 C38.58335127 16.02908357 35.1667345 16.04682691 31.75 16.0625 C30.78191406 16.07087891 29.81382813 16.07925781 28.81640625 16.08789062 C27.88183594 16.09111328 26.94726562 16.09433594 25.984375 16.09765625 C25.12553711 16.10289307 24.26669922 16.10812988 23.38183594 16.11352539 C21.09804502 16.00467312 19.20114511 15.58122607 17 15 C15.63323368 14.86070644 14.2625433 14.75634699 12.890625 14.68359375 C12.13652344 14.64169922 11.38242188 14.59980469 10.60546875 14.55664062 C9.43951172 14.49766602 9.43951172 14.49766602 8.25 14.4375 C7.06083984 14.37272461 7.06083984 14.37272461 5.84765625 14.30664062 C3.89862185 14.20097009 1.94933252 14.10002034 0 14 C-0.19393875 11.85473901 -0.37998676 9.70876323 -0.5625 7.5625 C-0.71912109 5.77005859 -0.71912109 5.77005859 -0.87890625 3.94140625 C-0.91886719 2.97074219 -0.95882812 2.00007813 -1 1 C-0.67 0.67 -0.34 0.34 0 0 Z " fill="#00B7EF" transform="translate(98,61)"/>
<path d="M0 0 C1.32 0 2.64 0 4 0 C4.46629018 5.56908832 2.87672274 9.45558668 0.6875 14.4375 C0.37876953 15.16259766 0.07003906 15.88769531 -0.24804688 16.63476562 C-1.15544668 18.76094664 -2.07674921 20.8806631 -3 23 C-3.57779484 24.34463486 -4.15469554 25.68965449 -4.73046875 27.03515625 C-5.14941406 28.01355469 -5.56835938 28.99195313 -6 30 C-11.35048061 29.62671065 -13.50912907 28.0042343 -17 24 C-17.1546875 25.670625 -17.1546875 25.670625 -17.3125 27.375 C-17.539375 28.57125 -17.76625 29.7675 -18 31 C-21.28262031 33.18841354 -22.31790898 33.24854665 -26.125 33.1875 C-27.01445313 33.18105469 -27.90390625 33.17460937 -28.8203125 33.16796875 C-31 33 -31 33 -32 32 C-32.07325168 29.13732433 -32.09238205 26.299281 -32.0625 23.4375 C-32.05798828 22.63119141 -32.05347656 21.82488281 -32.04882812 20.99414062 C-32.03700518 18.99606244 -32.01906914 16.99802217 -32 15 C-30.68 15 -29.36 15 -28 15 C-27.67 19.29 -27.34 23.58 -27 28 C-25.35 28 -23.7 28 -22 28 C-22.14058476 25.54126232 -22.28722999 23.08314825 -22.4375 20.625 C-22.47681641 19.92632812 -22.51613281 19.22765625 -22.55664062 18.5078125 C-22.74280134 14.62639508 -22.74280134 14.62639508 -24 11 C-24.039992 9.00039988 -24.04346799 6.99952758 -24 5 C-21.65625 5.140625 -21.65625 5.140625 -19 6 C-17.59375 8.546875 -17.59375 8.546875 -16.5 11.75 C-14.61158588 17.22640096 -13.45592904 18.54407096 -9 23 C-6.03 15.41 -3.06 7.82 0 0 Z " fill="#000000" transform="translate(122,105)"/>
<path d="M0 0 C3.63 0 7.26 0 11 0 C11 3.96 11 7.92 11 12 C11.99 12 12.98 12 14 12 C14.144375 13.134375 14.28875 14.26875 14.4375 15.4375 C14.61171478 18.80777201 14.61171478 18.80777201 16 20 C16.07244053 22.01964199 16.08377188 24.04167124 16.0625 26.0625 C16.05347656 27.16722656 16.04445313 28.27195313 16.03515625 29.41015625 C16.02355469 30.26480469 16.01195313 31.11945313 16 32 C12.37 32 8.74 32 5 32 C5 31.34 5 30.68 5 30 C3.35 30 1.7 30 0 30 C0 20.1 0 10.2 0 0 Z " fill="#2F3699" transform="translate(76,165)"/>
<path d="M0 0 C3.3 0 6.6 0 10 0 C10.96061443 3.84245772 11.16631089 6.93382519 11.1875 10.875 C11.20167969 12.06867188 11.21585938 13.26234375 11.23046875 14.4921875 C11.00004992 17.99924022 10.26279461 20.73570089 9 24 C5.37 24 1.74 24 -2 24 C-2 17.07 -2 10.14 -2 3 C-1.34 3 -0.68 3 0 3 C0 2.01 0 1.02 0 0 Z " fill="#22B14C" transform="translate(2,123)"/>
<path d="M0 0 C7.57266875 -0.5939348 13.87518733 1.56713714 21 4 C21 4.66 21 5.32 21 6 C20.04738281 6.04898438 19.09476563 6.09796875 18.11328125 6.1484375 C16.85902344 6.22320312 15.60476562 6.29796875 14.3125 6.375 C12.45044922 6.47941406 12.45044922 6.47941406 10.55078125 6.5859375 C7.26900451 6.96863094 4.89121144 7.42297558 2 9 C1.67 9.99 1.34 10.98 1 12 C0.67 12 0.34 12 0 12 C0 8.04 0 4.08 0 0 Z " fill="#00B7EF" transform="translate(0,110)"/>
<path d="M0 0 C3 1.75 3 1.75 5 4 C5 5.32 5 6.64 5 8 C0.44615385 8.36923077 0.44615385 8.36923077 -1.8125 6.5 C-2.204375 6.005 -2.59625 5.51 -3 5 C-6.11785113 5.64644661 -6.11785113 5.64644661 -7 8 C-8.65 8 -10.3 8 -12 8 C-11.65447612 5.44312331 -11.24912987 3.42498625 -9.9375 1.1875 C-6.77658279 -0.74983636 -3.53933948 -0.62661458 0 0 Z " fill="#000000" transform="translate(121,45)"/>
<path d="M0 0 C3.96 0.33 7.92 0.66 12 1 C12 2.98 12 4.96 12 7 C7.9472484 7.98248524 4.16138263 8.08159574 0 8 C0 5.36 0 2.72 0 0 Z " fill="#00B7EF" transform="translate(82,68)"/>
<path d="M0 0 C4.28282783 0.25193105 6.52200982 0.62370986 9.9375 3.3125 C12 6 12 6 12 10 C9.21285675 10.50675332 7.51521844 10.32573728 5.109375 8.8046875 C1.50040736 5.88523807 1.50040736 5.88523807 0 4 C0 2.68 0 1.36 0 0 Z " fill="#000000" transform="translate(96,29)"/>
<path d="M0 0 C3.63 0.33 7.26 0.66 11 1 C11 2.65 11 4.3 11 6 C7.37 5.67 3.74 5.34 0 5 C0 3.35 0 1.7 0 0 Z " fill="#9C5A3C" transform="translate(82,59)"/>
<path d="M0 0 C1.2065625 0.0309375 1.2065625 0.0309375 2.4375 0.0625 C2.4375 2.7025 2.4375 5.3425 2.4375 8.0625 C0.7875 8.0625 -0.8625 8.0625 -2.5625 8.0625 C-2.94313221 5.7364143 -3.27519945 3.40194736 -3.5625 1.0625 C-2.5625 0.0625 -2.5625 0.0625 0 0 Z " fill="#000000" transform="translate(94.5625,100.9375)"/>
<path d="M0 0 C1.99954746 -0.04254356 4.00041636 -0.04080783 6 0 C7 1 7 1 7.0625 3.5625 C7.041875 4.366875 7.02125 5.17125 7 6 C4.69 6 2.38 6 0 6 C0 4.02 0 2.04 0 0 Z " fill="#000000" transform="translate(118,92)"/>
<path d="M0 0 C0 1.98 0 3.96 0 6 C-2.31 6.33 -4.62 6.66 -7 7 C-7 5.35 -7 3.7 -7 2 C-2.25 0 -2.25 0 0 0 Z " fill="#9C5A3C" transform="translate(149,60)"/>
<path d="M0 0 C0.66 0.33 1.32 0.66 2 1 C2 2.98 2 4.96 2 7 C0.02 7 -1.96 7 -4 7 C-3.6875 4.625 -3.6875 4.625 -3 2 C-2.01 1.34 -1.02 0.68 0 0 Z " fill="#00B7EF" transform="translate(148,70)"/>
</svg>
